<svg xmlns="http://www.w3.org/2000/svg" width="612" height="408" viewBox="0 0 612 408">
<g shape-rendering="geometricPrecision" text-rendering="geometricPrecision">
<path d="M 226.00 227.00 L 222.00 229.00 L 215.00 230.00 L 210.00 234.00 L 208.00 234.00 L 200.00 241.00 L 196.00 247.00 L 190.00 265.00 L 190.00 284.00 L 192.00 293.00 L 200.00 308.00 L 206.00 314.00 L 214.00 319.00 L 232.00 324.00 L 243.00 324.00 L 258.00 320.00 L 270.00 313.00 L 277.00 305.00 L 281.00 297.00 L 285.00 282.00 L 285.00 266.00 L 283.00 257.00 L 277.00 244.00 L 273.00 239.00 L 265.00 233.00 L 257.00 229.00 L 253.00 229.00 L 249.00 227.00 L 241.00 227.00 L 240.00 226.00 Z" fill="#18d2ef" fill-rule="nonzero"/>
<path d="M 326.00 229.00 L 315.00 235.00 L 306.00 245.00 L 299.00 263.00 L 299.00 287.00 L 305.00 303.00 L 315.00 314.00 L 321.00 318.00 L 336.00 323.00 L 352.00 324.00 L 373.00 317.00 L 384.00 307.00 L 390.00 297.00 L 391.00 291.00 L 393.00 288.00 L 394.00 267.00 L 390.00 255.00 L 390.00 251.00 L 383.00 241.00 L 377.00 235.00 L 366.00 229.00 L 361.00 229.00 L 357.00 227.00 L 350.00 227.00 L 349.00 226.00 L 335.00 227.00 L 332.00 229.00 Z" fill="#18d2ef" fill-rule="nonzero"/>
<path d="M 508.00 109.00 L 508.00 201.00 L 509.00 202.00 L 551.00 202.00 L 552.00 201.00 L 559.00 201.00 L 563.00 200.00 L 577.00 192.00 L 586.00 181.00 L 591.00 168.00 L 591.00 163.00 L 592.00 162.00 L 592.00 146.00 L 590.00 142.00 L 590.00 138.00 L 586.00 128.00 L 577.00 118.00 L 564.00 111.00 L 555.00 110.00 L 550.00 108.00 L 510.00 108.00 Z" fill="#18d2ef" fill-rule="nonzero"/>
<path d="M 408.00 108.00 L 407.00 202.00 L 423.00 201.00 L 423.00 134.00 L 426.00 134.00 L 433.00 144.00 L 465.00 202.00 L 488.00 202.00 L 488.00 109.00 L 471.00 109.00 L 472.00 176.00 L 468.00 177.00 L 430.00 110.00 L 427.00 108.00 Z" fill="#18d2ef" fill-rule="nonzero"/>
<path d="M 319.00 111.00 L 303.00 124.00 L 295.00 144.00 L 295.00 165.00 L 303.00 186.00 L 320.00 200.00 L 333.00 203.00 L 352.00 203.00 L 371.00 196.00 L 384.00 182.00 L 390.00 165.00 L 390.00 144.00 L 385.00 129.00 L 382.00 128.00 L 370.00 144.00 L 372.00 155.00 L 371.00 167.00 L 364.00 181.00 L 354.00 188.00 L 340.00 191.00 L 338.00 188.00 L 330.00 188.00 L 322.00 182.00 L 315.00 170.00 L 312.00 154.00 L 314.00 142.00 L 319.00 131.00 L 331.00 122.00 L 345.00 120.00 L 359.00 125.00 L 368.00 133.00 L 379.00 121.00 L 366.00 111.00 L 353.00 107.00 L 331.00 107.00 Z" fill="#18d2ef" fill-rule="nonzero"/>
<path d="M 116.00 109.00 L 116.00 201.00 L 191.00 202.00 L 192.00 189.00 L 136.00 189.00 L 134.00 187.00 L 134.00 164.00 L 136.00 162.00 L 182.00 162.00 L 185.00 160.00 L 185.00 149.00 L 182.00 147.00 L 136.00 147.00 L 134.00 145.00 L 134.00 124.00 L 136.00 122.00 L 188.00 121.00 L 188.00 109.00 Z" fill="#186eea" fill-rule="nonzero"/>
<path d="M 412.00 228.00 L 411.00 322.00 L 428.00 322.00 L 429.00 288.00 L 440.00 279.00 L 443.00 279.00 L 477.00 322.00 L 497.00 322.00 L 456.00 269.00 L 456.00 266.00 L 493.00 230.00 L 493.00 228.00 L 473.00 229.00 L 433.00 269.00 L 429.00 268.00 L 429.00 229.00 Z" fill="#18d2ef" fill-rule="nonzero"/>
<path d="M 31.00 113.00 L 24.00 121.00 L 22.00 136.00 L 26.00 147.00 L 39.00 156.00 L 74.00 165.00 L 81.00 172.00 L 81.00 182.00 L 76.00 188.00 L 66.00 191.00 L 54.00 191.00 L 42.00 187.00 L 35.00 177.00 L 19.00 179.00 L 19.00 184.00 L 23.00 191.00 L 33.00 199.00 L 48.00 203.00 L 59.00 204.00 L 85.00 199.00 L 95.00 191.00 L 98.00 184.00 L 99.00 172.00 L 95.00 161.00 L 83.00 152.00 L 44.00 142.00 L 39.00 135.00 L 39.00 128.00 L 46.00 120.00 L 66.00 119.00 L 74.00 123.00 L 79.00 130.00 L 95.00 129.00 L 93.00 120.00 L 87.00 113.00 L 71.00 107.00 L 47.00 107.00 Z" fill="#186eea" fill-rule="nonzero"/>
<path d="M 231.00 110.00 L 218.00 118.00 L 212.00 126.00 L 206.00 142.00 L 206.00 167.00 L 212.00 183.00 L 222.00 195.00 L 233.00 201.00 L 262.00 203.00 L 279.00 197.00 L 290.00 186.00 L 293.00 178.00 L 283.00 173.00 L 279.00 173.00 L 276.00 179.00 L 265.00 188.00 L 248.00 190.00 L 238.00 187.00 L 230.00 180.00 L 225.00 170.00 L 224.00 142.00 L 230.00 130.00 L 236.00 124.00 L 247.00 120.00 L 262.00 121.00 L 271.00 126.00 L 278.00 135.00 L 291.00 132.00 L 292.00 129.00 L 290.00 124.00 L 279.00 113.00 L 263.00 107.00 L 241.00 107.00 L 239.00 109.00 Z" fill="#186eea" fill-rule="nonzero"/>
<path d="M 109.00 228.00 L 108.00 229.00 L 108.00 322.00 L 178.00 322.00 L 178.00 309.00 L 129.00 309.00 L 126.00 306.00 L 126.00 228.00 Z" fill="#18d2ef" fill-rule="nonzero"/>
<path d="M 394.00 112.00 L 392.00 112.00 L 391.00 114.00 L 387.00 116.00 L 367.00 135.00 L 366.00 135.00 L 366.00 136.00 L 354.00 149.00 L 338.00 170.00 L 334.00 170.00 L 332.00 168.00 L 328.00 166.00 L 326.00 166.00 L 321.00 162.00 L 318.00 162.00 L 318.00 164.00 L 332.00 180.00 L 336.00 186.00 L 340.00 189.00 L 340.00 190.00 L 342.00 190.00 L 345.00 182.00 L 349.00 177.00 L 349.00 175.00 L 351.00 173.00 L 354.00 166.00 L 358.00 161.00 L 359.00 158.00 L 365.00 149.00 L 369.00 145.00 L 370.00 142.00 L 374.00 138.00 L 380.00 129.00 L 386.00 123.00 L 386.00 122.00 L 390.00 119.00 L 392.00 115.00 L 394.00 114.00 Z" fill="#186eea" fill-rule="nonzero"/>
</g></svg>